<?xml version="1.0" encoding="UTF-8" standalone="no"?>
<!-- Created with Inkscape (http://www.inkscape.org/) -->

<svg
   xmlns:dc="http://purl.org/dc/elements/1.1/"
   xmlns:cc="http://creativecommons.org/ns#"
   xmlns:rdf="http://www.w3.org/1999/02/22-rdf-syntax-ns#"
   xmlns:svg="http://www.w3.org/2000/svg"
   xmlns="http://www.w3.org/2000/svg"
   xmlns:sodipodi="http://sodipodi.sourceforge.net/DTD/sodipodi-0.dtd"
   xmlns:inkscape="http://www.inkscape.org/namespaces/inkscape"
   width="474.66299"
   height="471.59"
   id="svg2"
   inkscape:label="Pozadí"
   version="1.1"
   inkscape:version="0.48.2 r9819"
   sodipodi:docname="logo-informal.svg"
   enable-background="new">
  <defs
     id="defs3049">
    <filter
       inkscape:collect="always"
       id="filter3979">
      <feBlend
         inkscape:collect="always"
         mode="multiply"
         in2="BackgroundImage"
         id="feBlend3981" />
    </filter>
  </defs>
  <sodipodi:namedview
     id="base"
     pagecolor="#ffffff"
     bordercolor="#666666"
     borderopacity="1.0"
     inkscape:pageopacity="0.0"
     inkscape:pageshadow="2"
     inkscape:zoom="0.70710678"
     inkscape:cx="288.60914"
     inkscape:cy="271.39825"
     inkscape:document-units="px"
     inkscape:current-layer="layer2"
     showgrid="false"
     fit-margin-top="0"
     fit-margin-left="0"
     fit-margin-right="0"
     fit-margin-bottom="0"
     inkscape:window-width="1366"
     inkscape:window-height="705"
     inkscape:window-x="-8"
     inkscape:window-y="-8"
     inkscape:window-maximized="1" />
  <metadata
     id="metadata3052">
    <rdf:RDF>
      <cc:Work
         rdf:about="">
        <dc:format>image/svg+xml</dc:format>
        <dc:type
           rdf:resource="http://purl.org/dc/dcmitype/StillImage" />
        <dc:title></dc:title>
      </cc:Work>
    </rdf:RDF>
  </metadata>
  <g
     inkscape:label="Původní"
     inkscape:groupmode="layer"
     id="layer1"
     transform="translate(-652.62333,-140.09062)"
     style="display:none"
     sodipodi:insensitive="true">
    <g
       transform="translate(603.12733,118.26262)"
       id="g3">
      <path
         style="fill:#670361"
         inkscape:connector-curvature="0"
         d="M 282.704,407.458 76.805,223.019 265.563,21.828 471.458,206.269 282.704,407.458 z m 10.494,-178.017 -1.268,-77.182 63.867,57.211 13.865,-14.771 -89.977,-80.6 -11.807,12.588 1.316,83.604 -91.236,8.59 -11.979,12.77 93.174,83.463 14.207,-15.143 -69.34,-62.113 89.178,-8.417 z"
         id="path5" />
      <g
         id="g7">
        <path
           style="fill:#3c2415"
           inkscape:connector-curvature="0"
           d="m 73.076,263.582 c -0.821,0.901 -1.306,1.821 -1.458,2.758 -0.151,0.938 -0.077,1.893 0.223,2.864 0.299,0.972 0.766,1.969 1.399,2.992 0.633,1.023 1.316,2.064 2.049,3.122 0.982,1.427 1.918,2.865 2.805,4.315 0.888,1.451 1.522,2.915 1.903,4.393 0.379,1.478 0.41,2.979 0.09,4.503 -0.32,1.524 -1.189,3.065 -2.608,4.623 -1.446,1.589 -3.011,2.672 -4.692,3.249 -1.683,0.578 -3.418,0.729 -5.209,0.454 -1.791,-0.275 -3.611,-0.928 -5.461,-1.955 -1.851,-1.029 -3.682,-2.368 -5.494,-4.019 -0.834,-0.759 -1.642,-1.586 -2.427,-2.48 -0.782,-0.896 -1.495,-1.789 -2.136,-2.679 -0.641,-0.892 -1.186,-1.735 -1.632,-2.534 -0.447,-0.798 -0.757,-1.471 -0.932,-2.021 l 3.108,-3.413 c 0.328,0.801 0.747,1.644 1.261,2.53 0.513,0.886 1.081,1.76 1.706,2.621 0.624,0.861 1.286,1.695 1.989,2.502 0.702,0.808 1.398,1.525 2.088,2.153 1.123,1.022 2.277,1.904 3.462,2.649 1.185,0.744 2.357,1.252 3.516,1.525 1.159,0.273 2.3,0.244 3.424,-0.088 1.124,-0.332 2.193,-1.055 3.208,-2.17 0.834,-0.917 1.327,-1.852 1.477,-2.805 0.148,-0.954 0.072,-1.925 -0.231,-2.913 -0.303,-0.988 -0.773,-1.995 -1.407,-3.021 -0.636,-1.025 -1.33,-2.076 -2.081,-3.15 -1.001,-1.415 -1.942,-2.838 -2.824,-4.27 -0.882,-1.432 -1.514,-2.879 -1.896,-4.345 -0.382,-1.465 -0.419,-2.938 -0.112,-4.418 0.306,-1.481 1.141,-2.97 2.504,-4.467 1.418,-1.558 2.938,-2.626 4.559,-3.203 1.62,-0.578 3.275,-0.769 4.964,-0.571 1.689,0.196 3.358,0.726 5.01,1.586 1.651,0.86 3.23,1.978 4.738,3.35 1.716,1.563 3.173,3.176 4.371,4.84 1.198,1.663 2.186,3.31 2.961,4.938 l -3.15,3.46 c -0.845,-1.747 -1.822,-3.434 -2.936,-5.063 -1.114,-1.628 -2.473,-3.188 -4.079,-4.678 -1.219,-1.109 -2.392,-1.947 -3.52,-2.514 -1.128,-0.565 -2.2,-0.885 -3.218,-0.959 -1.018,-0.075 -1.973,0.089 -2.866,0.49 -0.894,0.404 -1.709,1.009 -2.446,1.819 z"
           id="path9" />
        <path
           style="fill:#3c2415"
           inkscape:connector-curvature="0"
           d="m 81.267,312.272 -3.922,-3.57 27.911,-30.654 8.916,8.118 c 1.329,1.21 2.489,2.405 3.48,3.587 0.99,1.181 1.812,2.361 2.464,3.543 1.324,2.407 1.889,4.716 1.693,6.926 -0.196,2.21 -1.164,4.271 -2.902,6.18 -1.418,1.558 -2.991,2.633 -4.717,3.227 -1.727,0.593 -3.568,0.725 -5.525,0.396 -1.956,-0.327 -4.002,-1.095 -6.141,-2.302 -2.138,-1.207 -4.328,-2.83 -6.57,-4.872 -1.073,-0.977 -2.144,-2.036 -3.214,-3.178 l -11.473,12.599 z m 14.581,-16.014 c 0.474,0.543 0.985,1.092 1.534,1.647 0.55,0.558 1.082,1.068 1.595,1.536 1.843,1.678 3.54,2.973 5.089,3.88 1.55,0.908 2.974,1.471 4.271,1.688 1.298,0.218 2.475,0.116 3.532,-0.304 1.057,-0.42 2.023,-1.111 2.899,-2.073 1.085,-1.191 1.675,-2.442 1.769,-3.754 0.094,-1.312 -0.231,-2.669 -0.977,-4.074 -0.467,-0.872 -1.104,-1.766 -1.912,-2.684 -0.808,-0.917 -1.806,-1.916 -2.992,-2.996 l -4.546,-4.14 -10.262,11.274 z"
           id="path11" />
        <path
           style="fill:#3c2415"
           inkscape:connector-curvature="0"
           d="m 148.887,345.848 c -2.114,2.322 -4.405,4.134 -6.87,5.437 -2.466,1.303 -4.992,2.062 -7.575,2.279 -2.585,0.218 -5.153,-0.117 -7.708,-1.004 -2.553,-0.886 -4.968,-2.365 -7.242,-4.437 -2.355,-2.145 -4.105,-4.457 -5.25,-6.938 -1.146,-2.481 -1.724,-5.012 -1.732,-7.59 -0.01,-2.579 0.527,-5.149 1.609,-7.712 1.081,-2.563 2.68,-5.005 4.793,-7.327 2.127,-2.336 4.432,-4.156 6.913,-5.459 2.481,-1.303 5.01,-2.066 7.587,-2.291 2.575,-0.225 5.144,0.11 7.706,1.004 2.561,0.893 4.987,2.383 7.279,4.47 2.338,2.129 4.076,4.431 5.214,6.905 1.136,2.474 1.709,5 1.72,7.578 0.009,2.58 -0.53,5.153 -1.62,7.724 -1.088,2.571 -2.697,5.024 -4.824,7.361 z m -3.898,-3.549 c 1.877,-2.062 3.248,-4.137 4.113,-6.228 0.865,-2.089 1.279,-4.115 1.242,-6.076 -0.038,-1.962 -0.487,-3.83 -1.347,-5.605 -0.861,-1.774 -2.069,-3.371 -3.625,-4.788 -1.557,-1.417 -3.259,-2.471 -5.107,-3.161 -1.847,-0.69 -3.75,-0.963 -5.706,-0.817 -1.957,0.146 -3.935,0.748 -5.935,1.804 -2,1.058 -3.938,2.617 -5.815,4.679 -1.877,2.062 -3.242,4.138 -4.092,6.227 -0.85,2.09 -1.256,4.116 -1.218,6.077 0.038,1.962 0.489,3.826 1.357,5.594 0.867,1.768 2.087,3.367 3.66,4.799 1.557,1.417 3.247,2.468 5.072,3.151 1.824,0.683 3.715,0.951 5.671,0.806 1.956,-0.146 3.93,-0.744 5.923,-1.793 1.994,-1.051 3.93,-2.606 5.807,-4.669 z"
           id="path13" />
        <path
           style="fill:#3c2415"
           inkscape:connector-curvature="0"
           d="m 174.74,341.313 -24.844,27.286 15.709,14.303 -3.066,3.367 -19.63,-17.873 27.911,-30.653 3.92,3.57 z"
           id="path15" />
        <path
           style="fill:#3c2415"
           inkscape:connector-curvature="0"
           d="m 176.278,392.621 16.502,15.024 -3.066,3.368 -20.424,-18.596 27.911,-30.654 19.534,17.786 -3.066,3.367 -15.612,-14.215 -9.011,9.897 13.88,12.638 -3.066,3.368 -13.88,-12.638 -9.702,10.655 z"
           id="path17" />
        <path
           style="fill:#3c2415"
           inkscape:connector-curvature="0"
           d="m 197.188,417.819 27.911,-30.654 3.922,3.571 -13.788,15.144 0.048,0.043 28.583,-1.673 3.921,3.57 -28.903,1.591 1.882,29.873 -3.921,-3.57 -2.021,-29.287 -0.048,-0.043 -13.664,15.006 -3.922,-3.571 z"
           id="path19" />
      </g>
      <g
         id="g21">
        <path
           style="fill:#3c2415"
           inkscape:connector-curvature="0"
           d="m 319.605,476.505 -1.659,1.789 -25.607,-8.793 c -3.531,-1.205 -7.282,-2.612 -11.253,-4.225 l -0.177,0.19 c 4.433,3.696 8.405,7.174 11.919,10.432 l 14.699,13.631 -3.605,3.889 -30.399,-28.188 5.199,-5.606 24.167,8.435 c 2.766,0.967 6.013,2.22 9.744,3.756 l 0.11,-0.119 c -2.014,-3.997 -3.506,-7.14 -4.479,-9.434 l -10.231,-23.463 5.198,-5.605 30.398,28.188 -3.605,3.889 -14.699,-13.631 c -3.438,-3.188 -7.205,-6.887 -11.3,-11.1 l -0.177,0.19 c 2.014,4.057 3.7,7.69 5.06,10.904 l 10.697,24.871 z"
           id="path23" />
        <path
           style="fill:#3c2415"
           inkscape:connector-curvature="0"
           d="m 338.844,455.758 -18.343,-41.189 3.119,-3.364 42.454,15.188 -3.915,4.223 -12.69,-4.678 -12.375,13.346 5.621,12.301 -3.871,4.173 z m -12.09,-38.453 c 2.463,4.932 4.64,9.48 6.531,13.645 l 1.756,3.848 9.811,-10.579 -3.981,-1.441 c -4.364,-1.61 -9.039,-3.467 -14.027,-5.567 l -0.09,0.094 z"
           id="path25" />
        <path
           style="fill:#3c2415"
           inkscape:connector-curvature="0"
           d="m 379.474,411.943 -3.605,3.889 -27.059,-25.091 -9.889,10.663 -3.34,-3.098 23.382,-25.215 3.34,3.098 -9.888,10.663 27.059,25.091 z"
           id="path27" />
        <path
           style="fill:#3c2415"
           inkscape:connector-curvature="0"
           d="m 398.293,391.649 -3.606,3.889 -30.398,-28.188 17.652,-19.036 3.34,3.098 -14.046,15.147 9.814,9.102 12.455,-13.431 3.34,3.097 -12.455,13.431 13.904,12.891 z"
           id="path29" />
        <path
           style="fill:#3c2415"
           inkscape:connector-curvature="0"
           d="m 417.499,346.423 12.223,11.334 -3.606,3.889 -12.223,-11.334 -28.948,-5.237 3.938,-4.246 23.351,4.438 0.11,-0.119 -6.185,-22.95 3.938,-4.246 7.402,28.471 z"
           id="path31" />
        <path
           style="fill:#3c2415"
           inkscape:connector-curvature="0"
           d="m 435.772,290.263 2.318,2.149 7.574,41.453 17.364,-18.726 3.34,3.097 -22.099,23.831 -2.316,-2.148 -7.532,-41.502 -16.812,18.13 -3.34,-3.098 21.503,-23.186 z"
           id="path33" />
        <path
           style="fill:#3c2415"
           inkscape:connector-curvature="0"
           d="m 451.791,258.499 1.607,9.521 -3.074,3.316 -2.382,-8.688 3.849,-4.149 z m 18.244,55.785 -18.342,-41.189 3.118,-3.364 42.455,15.188 -3.916,4.223 -12.689,-4.678 -12.375,13.346 5.62,12.301 -3.871,4.173 z m -12.089,-38.453 c 2.463,4.932 4.64,9.48 6.531,13.645 l 1.756,3.847 9.81,-10.579 -3.981,-1.441 c -4.363,-1.609 -9.039,-3.466 -14.027,-5.566 l -0.089,0.094 z"
           id="path35" />
        <path
           style="fill:#3c2415"
           inkscape:connector-curvature="0"
           d="m 502.48,279.294 -30.398,-28.188 3.606,-3.889 15.018,13.926 0.044,-0.047 -1.413,-28.597 3.605,-3.889 1.328,28.917 29.889,-1.611 -3.605,3.889 -29.304,1.755 -0.044,0.047 14.881,13.799 -3.607,3.888 z"
           id="path37" />
      </g>
    </g>
  </g>
  <g
     inkscape:groupmode="layer"
     id="layer2"
     inkscape:label="Nové"
     style="display:inline;filter:url(#filter3979)">
    <text
       sodipodi:linespacing="125%"
       id="text3937"
       y="168.114"
       x="174.37526"
       style="font-size:65.89273071px;font-style:normal;font-variant:normal;font-weight:normal;font-stretch:normal;line-height:125%;letter-spacing:0px;word-spacing:0px;fill:#000000;fill-opacity:1;stroke:none;font-family:Corbel;-inkscape-font-specification:Corbel"
       xml:space="preserve"
       transform="matrix(0.71659036,0.71659036,-0.69774871,0.69774871,0,0)"><tspan
         style="font-style:normal;font-variant:normal;font-weight:normal;font-stretch:normal;letter-spacing:0.5px;font-family:Corbel;-inkscape-font-specification:Corbel"
         y="168.114"
         x="174.37526"
         id="tspan3939"
         sodipodi:role="line">SPOLEK</tspan></text>
    <path
       style="color:#000000;fill:#000000;fill-opacity:1;fill-rule:nonzero;stroke:none;stroke-width:1;marker:none;visibility:visible;display:inline;overflow:visible;enable-background:accumulate"
       d="M 36.673352,192.85529 227.59218,383.77415 418.51101,192.85531 227.59218,1.9364689 36.673352,192.85529 z m 89.051258,6.40816 14.14215,-14.14212 79.99144,0 0,-79.99147 14.14215,-14.142124 95.45939,95.459394 -14.14211,14.14216 -75.43949,-75.43945 1e-5,59.97148 -0.0221,19.99786 -19.97575,1e-5 -59.99359,0.0221 75.43944,75.43944 -14.14212,14.14215 -95.45943,-95.45943 z"
       id="rect3155"
       inkscape:connector-curvature="0" />
    <text
       transform="matrix(0.71659036,-0.71659036,0.69774871,0.69774871,0,0)"
       xml:space="preserve"
       style="font-size:65.89273071px;font-style:normal;font-variant:normal;font-weight:normal;font-stretch:normal;line-height:125%;letter-spacing:0.5px;word-spacing:0px;fill:#000000;fill-opacity:1;stroke:none;font-family:Corbel;-inkscape-font-specification:Corbel"
       x="-169.94655"
       y="504.17999"
       id="text3961"
       sodipodi:linespacing="125%"><tspan
         sodipodi:role="line"
         id="tspan3963"
         x="-169.94655"
         y="504.17999"
         style="font-style:normal;font-variant:normal;font-weight:normal;font-stretch:normal;letter-spacing:0.5px;font-family:Corbel;-inkscape-font-specification:Corbel">MATFYZÁK</tspan></text>
  </g>
</svg>
